<?xml version="1.0" encoding="utf-8"?>
<!-- Generator: Adobe Illustrator 27.5.0, SVG Export Plug-In . SVG Version: 6.00 Build 0)  -->
<svg version="1.1" id="logo_icon" xmlns="http://www.w3.org/2000/svg" xmlns:xlink="http://www.w3.org/1999/xlink" x="0px" y="0px"
	 viewBox="0 0 2000 2000" style="enable-background:new 0 0 2000 2000;" xml:space="preserve">
<style type="text/css">
	.st0{fill:url(#SVGID_1_);}
	.st1{fill:url(#SVGID_00000142139716119702040130000018254380976396013710_);}
	.st2{fill:url(#SVGID_00000031195152236648788800000011427463234810911110_);}
</style>
<g>
	
		<linearGradient id="SVGID_1_" gradientUnits="userSpaceOnUse" x1="173.087" y1="1002" x2="5235.3813" y2="1002" gradientTransform="matrix(1 0 0 -1 0 2002)">
		<stop  offset="5.618000e-03" style="stop-color:#D7F0FC"/>
		<stop  offset="0.5556" style="stop-color:#ABE1FA"/>
		<stop  offset="1" style="stop-color:#96CFF1"/>
	</linearGradient>
	<path class="st0" d="M1000,1826.91c-456.71,0-826.91-370.2-826.91-826.91c0-456.71,370.21-826.91,826.91-826.91
		c456.7,0,826.91,370.21,826.91,826.91C1826.86,1456.71,1456.65,1826.91,1000,1826.91z"/>
	
		<linearGradient id="SVGID_00000047752671675731782320000012382204158118336182_" gradientUnits="userSpaceOnUse" x1="173.0042" y1="588.5064" x2="5235.0298" y2="588.5064" gradientTransform="matrix(1 0 0 -1 0 2002)">
		<stop  offset="0" style="stop-color:#2E3190"/>
		<stop  offset="1" style="stop-color:#004EE4"/>
	</linearGradient>
	<path style="fill:url(#SVGID_00000047752671675731782320000012382204158118336182_);" d="M964.46,1543.26l435.43-41.54
		c76.63-7.31,139.35-64.05,154.33-139.51l12.91-64.84c1.76-8.91-7.04-16.21-15.41-12.85l-592.53,236.78
		C946.87,1526.19,951.29,1544.48,964.46,1543.26z"/>
	
		<linearGradient id="SVGID_00000054228079670917009490000001650434883786926237_" gradientUnits="userSpaceOnUse" x1="172.9358" y1="988.1777" x2="5235.0298" y2="988.1777" gradientTransform="matrix(1 0 0 -1 0 2002)">
		<stop  offset="0" style="stop-color:#41BAFF"/>
		<stop  offset="1" style="stop-color:#004EE4"/>
	</linearGradient>
	<path style="fill:url(#SVGID_00000054228079670917009490000001650434883786926237_);" d="M434.3,563.7
		c-5.71-25.7,3.89-33.22,21.65-17.01c60.37,55.14,198.76,194.27,315.65,406.15c118.18,214.16,164.3,426.84,179.5,514.94
		c4.27,24.69-7.36,28.96-26.08,9.6c-66.24-68.63-219.07-236.35-316.61-417.77C510.4,877.22,454.72,656.01,434.3,563.7z"/>
</g>
</svg>
